<svg width="35" height="35" viewBox="0 0 35 35" fill="none" xmlns="http://www.w3.org/2000/svg">
<path d="M26.6328 3.5C26.0358 3.5 25.4387 3.72801 24.9831 4.18359L22.1667 7L28 12.8333L30.8164 10.0169C31.7276 9.10576 31.7276 7.62861 30.8164 6.71745L28.2826 4.18359C27.827 3.72801 27.2299 3.5 26.6328 3.5ZM19.8333 9.33333L6.13639 23.0303C6.13639 23.0303 7.20712 22.9343 7.60612 23.3333C8.00512 23.7323 7.67667 26.3433 8.16667 26.8333C8.65667 27.3233 11.2512 26.9784 11.6234 27.3506C11.9955 27.7228 11.9697 28.8636 11.9697 28.8636L25.6667 15.1667L19.8333 9.33333ZM4.66667 26.8333L3.56608 29.9505C3.52281 30.0735 3.50048 30.2029 3.5 30.3333C3.5 30.6428 3.62292 30.9395 3.84171 31.1583C4.0605 31.3771 4.35725 31.5 4.66667 31.5C4.79707 31.4995 4.92646 31.4772 5.04948 31.4339C5.05329 31.4324 5.05708 31.4309 5.06087 31.4294L5.09049 31.4202C5.09278 31.4187 5.09506 31.4172 5.09733 31.4157L8.16667 30.3333L6.41667 28.5833L4.66667 26.8333Z" fill="black"/>
</svg>
