<svg width="20" height="20" viewBox="0 0 45 45" fill="none" xmlns="http://www.w3.org/2000/svg">
<path d="M22.5 4.5C12.5595 4.5 4.5 12.5595 4.5 22.5C4.5 32.4405 12.5595 40.5 22.5 40.5C32.4405 40.5 40.5 32.4405 40.5 22.5C40.5 12.5595 32.4405 4.5 22.5 4.5ZM32.5605 19.0605L21.2205 30.4005C20.9385 30.6825 20.5575 30.84 20.16 30.84C19.7625 30.84 19.38 30.6825 19.0995 30.4005L13.92 25.221C13.3335 24.6345 13.3335 23.6865 13.92 23.1C14.5065 22.5135 15.4545 22.5135 16.041 23.1L20.16 27.219L30.4395 16.9395C31.026 16.353 31.974 16.353 32.5605 16.9395C33.147 17.526 33.147 18.474 32.5605 19.0605Z" fill="black"/>
</svg>
