<svg width="60" height="60" viewBox="0 0 60 60" fill="none" xmlns="http://www.w3.org/2000/svg">
<path d="M30 0.9375C13.9453 0.9375 0.9375 13.9453 0.9375 30C0.9375 46.0547 13.9453 59.0625 30 59.0625C46.0547 59.0625 59.0625 46.0547 59.0625 30C59.0625 13.9453 46.0547 0.9375 30 0.9375ZM46.875 33.2812C46.875 34.0547 46.2422 34.6875 45.4688 34.6875H34.6875V45.4688C34.6875 46.2422 34.0547 46.875 33.2812 46.875H26.7188C25.9453 46.875 25.3125 46.2422 25.3125 45.4688V34.6875H14.5312C13.7578 34.6875 13.125 34.0547 13.125 33.2812V26.7188C13.125 25.9453 13.7578 25.3125 14.5312 25.3125H25.3125V14.5312C25.3125 13.7578 25.9453 13.125 26.7188 13.125H33.2812C34.0547 13.125 34.6875 13.7578 34.6875 14.5312V25.3125H45.4688C46.2422 25.3125 46.875 25.9453 46.875 26.7188V33.2812Z" fill="black"/>
</svg>
