<svg width="25" height="24" viewBox="0 0 36 35" fill="none" xmlns="http://www.w3.org/2000/svg">
<path d="M34.5798 30.2627L27.7716 23.4473C27.4643 23.1396 27.0477 22.9688 26.6107 22.9688H25.4976C27.3823 20.5557 28.5023 17.5205 28.5023 14.2188C28.5023 6.36426 22.1447 0 14.2985 0C6.45223 0 0.0946655 6.36426 0.0946655 14.2188C0.0946655 22.0732 6.45223 28.4375 14.2985 28.4375C17.5968 28.4375 20.6287 27.3164 23.0393 25.4297V26.5439C23.0393 26.9814 23.21 27.3984 23.5173 27.7061L30.3255 34.5215C30.9674 35.1641 32.0054 35.1641 32.6405 34.5215L34.573 32.5869C35.2149 31.9443 35.2149 30.9053 34.5798 30.2627ZM14.2985 22.9688C9.47054 22.9688 5.55766 19.0586 5.55766 14.2188C5.55766 9.38574 9.46371 5.46875 14.2985 5.46875C19.1264 5.46875 23.0393 9.37891 23.0393 14.2188C23.0393 19.0518 19.1332 22.9688 14.2985 22.9688Z" fill="black"/>
</svg>
